<svg xmlns="http://www.w3.org/2000/svg"  viewBox="0 0 100 100" width="100px" height="100px" baseProfile="basic"><path fill="#fefdef" d="M23.8,77.164c-3.034,0-5.502-2.468-5.502-5.502V31.417c0-3.034,2.468-5.502,5.502-5.502h54.527 c3.034,0,5.502,2.468,5.502,5.502v40.245c0,3.034-2.468,5.502-5.502,5.502H23.8z"/><path fill="#f15b6c" d="M65.473,41.439h9.793c-0.238-4.025-2.266-7.495-5.199-9.417c-0.804-0.527-1.676-0.937-2.599-1.21 c-0.642-0.191-1.31-0.314-1.994-0.365v10.992H65.473z"/><path fill="#f15b6c" d="M61.601,33.468c-6.235,0-11.289,5.054-11.289,11.289s5.054,11.289,11.289,11.289 S72.89,50.992,72.89,44.757H61.601V33.468z"/><path fill="#f15b6c" d="M51.444,84.976c-0.221,0-0.445-0.02-0.672-0.06l-32.862-5.802c-1.8-0.316-3.103-1.858-3.103-3.664 V27.835c0-1.806,1.304-3.348,3.103-3.664l32.862-5.802c0.227-0.039,0.451-0.06,0.672-0.06c2.071,0,3.755,1.671,3.755,3.724v59.22 c0,1.003-0.396,1.941-1.116,2.646C53.372,84.592,52.434,84.976,51.444,84.976z"/><path fill="#1f212b" d="M51.671,86.289c-0.288,0-0.579-0.029-0.867-0.087l-33.115-6.649 c-2.146-0.432-3.704-2.333-3.704-4.522V27.986c0-2.243,1.604-4.15,3.813-4.534l33.069-5.755c1.268-0.219,2.559,0.128,3.543,0.956 c0.984,0.828,1.549,2.041,1.549,3.327l0.054,60.021c0,1.276-0.572,2.476-1.568,3.292C53.651,85.943,52.674,86.289,51.671,86.289z M51.614,19.633c-0.134,0-0.27,0.012-0.404,0.035l-33.069,5.755c-1.25,0.217-2.156,1.295-2.156,2.563V75.03 c0,1.24,0.882,2.317,2.098,2.562l33.115,6.649c0.702,0.141,1.425-0.039,1.98-0.494c0.531-0.436,0.836-1.071,0.836-1.744 l-0.054-60.021c0-0.695-0.305-1.351-0.836-1.798C52.696,19.825,52.162,19.633,51.614,19.633z"/><path fill="#fff" d="M31.409,55.745v9.544l-4.797-0.453V38.654l9.082-0.857c1.748-0.166,3.286,0.08,4.613,0.75 c1.326,0.682,2.348,1.739,3.062,3.171c0.715,1.445,1.072,3.126,1.072,5.034c0,2.897-0.781,5.179-2.343,6.822 c-1.562,1.612-3.723,2.364-6.483,2.289L31.409,55.745z M31.409,51.225l4.285-0.015c1.269-0.005,2.237-0.371,2.902-1.105 c0.667-0.74,1-1.793,1-3.158c0-1.402-0.336-2.521-1.007-3.347c-0.672-0.82-1.599-1.201-2.783-1.153l-4.398,0.277v8.501H31.409z"/><path fill="#1f212b" d="M54.962,78.026l-0.005-2l24.012-0.054c2.233,0,4.049-1.815,4.049-4.047V31.004 c0-2.212-1.799-4.011-4.011-4.011l-24.048-0.02l0.002-2l24.047,0.02c3.313,0,6.01,2.696,6.01,6.011v40.922 c0,3.334-2.712,6.047-6.046,6.047L54.962,78.026z"/><path fill="#1f212b" d="M36.061,51.909l-4.688-0.116c-0.271-0.007-0.486-0.229-0.487-0.499l-0.021-8.469 c0-0.265,0.205-0.483,0.469-0.5l5.178-0.321c0.125,0.007,3.541,0.469,3.541,4.954C40.054,51.384,36.101,51.905,36.061,51.909z M31.886,50.806l4.129,0.107c0.053-0.013,3.039-0.431,3.039-3.955c0-3.608-2.465-3.946-2.57-3.959l-4.617,0.294L31.886,50.806z"/><path fill="#1f212b" d="M31.494,66.262c-0.02,0-0.039-0.001-0.059-0.004l-4.977-0.589c-0.252-0.029-0.441-0.242-0.441-0.496 V38.63c0-0.251,0.187-0.464,0.436-0.496c1.004-0.13,9.849-1.263,11.076-1.097c0.273,0.037,0.465,0.289,0.428,0.563 c-0.038,0.272-0.288,0.463-0.563,0.427c-0.8-0.108-6.482,0.543-10.376,1.042v25.659l3.977,0.471v-9.124 c0-0.136,0.055-0.266,0.153-0.36c0.098-0.094,0.234-0.132,0.365-0.14c1.804,0.066,6.821,0.073,8.352-0.672 c1.972-0.96,3.261-3.156,3.809-4.892c0.536-1.697,0.645-3.444,0.323-5.193c-0.05-0.271,0.129-0.532,0.401-0.583 c0.273-0.04,0.532,0.131,0.582,0.401c0.352,1.912,0.233,3.821-0.353,5.676c-0.61,1.935-2.067,4.392-4.325,5.489 c-1.754,0.854-6.683,0.821-8.308,0.787v9.173c0,0.143-0.061,0.279-0.168,0.374C31.734,66.217,31.615,66.262,31.494,66.262z"/><path fill="#1f212b" d="M43.501,42.189c-0.188,0-0.368-0.106-0.453-0.288c-0.646-1.381-1.619-2.412-2.889-3.066 c-0.246-0.126-0.342-0.428-0.215-0.673c0.126-0.246,0.428-0.344,0.673-0.216c1.472,0.758,2.594,1.945,3.336,3.531 c0.117,0.25,0.009,0.548-0.241,0.665C43.645,42.175,43.572,42.189,43.501,42.189z"/><path fill="#1f212b" d="M38.478,78.164c-0.032,0-0.063-0.003-0.096-0.009l-4.029-0.782 c-0.271-0.053-0.448-0.315-0.396-0.587c0.053-0.271,0.317-0.443,0.586-0.396l4.029,0.782c0.271,0.053,0.448,0.315,0.396,0.587 C38.921,77.998,38.712,78.164,38.478,78.164z"/><path fill="#1f212b" d="M47.091,79.784c-0.213,0-0.428-0.021-0.641-0.062l-5.034-0.865 c-0.272-0.047-0.455-0.306-0.408-0.578c0.047-0.271,0.305-0.455,0.577-0.408l5.045,0.867c0.701,0.139,1.402-0.043,1.943-0.489 c0.54-0.446,0.849-1.104,0.847-1.806l-0.021-7.069c-0.001-0.275,0.222-0.5,0.499-0.501c0,0,0.001,0,0.001,0 c0.275,0,0.499,0.223,0.5,0.499l0.021,7.069c0.003,1.001-0.438,1.94-1.209,2.578C48.606,79.519,47.858,79.784,47.091,79.784z"/><path fill="#1f212b" d="M49.893,67.546c-0.275,0-0.499-0.223-0.5-0.498l-0.014-3.736c-0.001-0.276,0.222-0.501,0.498-0.502 c0,0,0.001,0,0.002,0c0.275,0,0.499,0.223,0.5,0.498l0.014,3.736C50.394,67.321,50.134,67.529,49.893,67.546z"/><path fill="#1f212b" d="M49.874,60.964c-0.275,0-0.499-0.223-0.5-0.499l-0.01-3.664c-0.001-0.275,0.223-0.5,0.499-0.501 c0,0,0.001,0,0.001,0c0.275,0,0.499,0.223,0.5,0.499l0.01,3.664c0.001,0.275-0.223,0.5-0.499,0.501 C49.875,60.964,49.874,60.964,49.874,60.964z"/><path fill="#1f212b" d="M62.268,56.083c-4.104,0-7.411-1.892-7.615-2.011c-0.238-0.139-0.318-0.445-0.179-0.684 s0.446-0.317,0.684-0.18c0.069,0.04,6.965,3.971,12.887,0.248c3.916-2.459,4.535-7,4.632-8.494H61.905c-0.276,0-0.5-0.224-0.5-0.5 V33.71c-2.662,0.239-4.756,1.233-6.075,2.054c-0.233,0.146-0.543,0.074-0.689-0.161c-0.146-0.234-0.074-0.542,0.161-0.688 c1.504-0.936,3.953-2.083,7.078-2.239c0.138-0.01,0.271,0.042,0.37,0.137s0.155,0.226,0.155,0.362v10.789h10.789 c0.272,0,0.494,0.218,0.5,0.489c0.005,0.268,0.079,6.589-5.117,9.853C66.463,55.632,64.271,56.083,62.268,56.083z"/><path fill="#1f212b" d="M65.502,42.02c-0.132,0-0.258-0.052-0.352-0.146c-0.095-0.094-0.148-0.221-0.148-0.354V30.442 c0-0.141,0.059-0.274,0.163-0.369c0.104-0.095,0.244-0.136,0.383-0.129c0.068,0.006,1.698,0.164,3.672,1.18 c0.246,0.126,0.342,0.428,0.216,0.673c-0.126,0.246-0.426,0.345-0.673,0.216c-1.141-0.586-2.165-0.86-2.761-0.982v9.985 l8.932-0.072c-0.1-1.122-0.625-4.043-3.369-6.861c-0.192-0.198-0.188-0.515,0.01-0.707c0.198-0.192,0.514-0.188,0.707,0.01 c3.788,3.892,3.68,7.905,3.673,8.073c-0.01,0.268-0.229,0.479-0.496,0.481l-9.954,0.08C65.504,42.02,65.503,42.02,65.502,42.02z"/><path fill="#1f212b" d="M66.947,64.032h-11.96c-0.552,0-1-0.447-1-1s0.448-1,1-1h11.96c0.552,0,1,0.447,1,1 S67.499,64.032,66.947,64.032z"/><path fill="#1f212b" d="M76.82,64.032h-6.823c-0.552,0-1-0.447-1-1s0.448-1,1-1h6.823c0.552,0,1,0.447,1,1 S77.372,64.032,76.82,64.032z"/><path fill="#1f212b" d="M76.9,69.892H54.986c-0.552,0-1-0.447-1-1s0.448-1,1-1H76.9c0.552,0,1,0.447,1,1 S77.453,69.892,76.9,69.892z"/></svg>